# xmcd
#
# Track frame offsets: 
#        150
#        14532
#        27277
#        39182
#        52637
#        67772
#        81222
#        94572
#        107242
#        121365
#        133895
#        146372
#        158722
#        173087
#        187200
#        197492
#        209657
#        222390
#        234405
#        249640
#
# Disc length: 3588 seconds
#
# Revision: 2
# Processed by: cddbd v1.5.1PL2 Copyright (c) Steve Scherf et al.
# Submitted via: ExactAudioCopy v0.95b4
#
DISCID=130e0214
DTITLE=Various Artist - It's The Blues CD2
DYEAR=1900
DGENRE=Blues
TTITLE0=Big Joe Williams - Stack '0' Dollars
TTITLE1=Billie Holiday - Am I Blue
TTITLE2=T. Bone Walker - Sail On Boogie
TTITLE3=Muddy Waters - Rollin and Tumblin
TTITLE4=Peter Chatman - Beer Drinkin Women
TTITLE5=Leadbelly - Death Letter Blues
TTITLE6=Kokomo Arnold - Cryin Blues
TTITLE7=John Lee Hooker - Please Dont Go
TTITLE8=Billie Holiday - I'm A Low-Down Groove
TTITLE9=Muddy Waters - Little Geneva
TTITLE10=Memphis Minnie - Me And My Chauffeur Blues
TTITLE11=John Lee Hooker - War Is Over (Goodbye California)
TTITLE12=Ma Rainey - Toad Frog Blues
TTITLE13=Bessie Smith - Keeps On A Rainin
TTITLE14=Robert Johnson - Stop Breakin Down Blues
TTITLE15=Big Joe Williams - Peach Orchard Mama
TTITLE16=Arthur 'Big Boy' Crudup - Gonna Follow My Baby
TTITLE17=Lightning Hoopkins - Come Back Baby
TTITLE18=Mississippi John Hurt - Frankie
TTITLE19=Leadbelly - John Hardy
EXTD=
EXTT0=
EXTT1=
EXTT2=
EXTT3=
EXTT4=
EXTT5=
EXTT6=
EXTT7=
EXTT8=
EXTT9=
EXTT10=
EXTT11=
EXTT12=
EXTT13=
EXTT14=
EXTT15=
EXTT16=
EXTT17=
EXTT18=
EXTT19=
PLAYORDER=
